<svg height="512" viewBox="0 0 300 300" width="512" xmlns="http://www.w3.org/2000/svg"><path d="M266 212.369V238H34V94h232v93.132" fill="#f6d831"/><g fill="#5c128d"><path d="M266 246H34a8 8 0 01-8-8V94a8 8 0 018-8h232a8 8 0 018 8v93.133a8 8 0 01-16 0V102H42v128h216v-17.631a8 8 0 0116 0V238a8 8 0 01-8 8z"/><path d="M98 198H66a8 8 0 01-8-8v-24a8 8 0 018-8h24v-8H66a8 8 0 010-16h32a8 8 0 018 8v24a8 8 0 01-8 8H74v8h24a8 8 0 010 16zM217.994 198.002a7.955 7.955 0 01-3.571-.847 8 8 0 01-3.578-10.733L229.056 150H210a8 8 0 010-16h32a8 8 0 017.155 11.578l-24 48a8 8 0 01-7.161 4.424zM154 198a8 8 0 01-8-8v-16h-24a8 8 0 01-8-8v-24a8 8 0 0116 0v16h24a8 8 0 018 8v24a8 8 0 01-8 8zM170.005 222.002a7.999 7.999 0 01-7.723-10.106l24-88a7.997 7.997 0 019.823-5.613 7.999 7.999 0 015.613 9.822l-24 88a8.003 8.003 0 01-7.713 5.897z"/><path d="M154 190a8 8 0 01-8-8v-32a8 8 0 0116 0v32a8 8 0 01-8 8z"/></g><path d="M74 62h24v32H74z" fill="#f35cd2"/><path d="M98 102H74a8 8 0 01-8-8V62a8 8 0 018-8h24a8 8 0 018 8v32a8 8 0 01-8 8zM82 86h8V70h-8z" fill="#5c128d"/><path d="M202 62h24v32h-24z" fill="#f35cd2"/><path d="M226 102h-24a8 8 0 01-8-8V62a8 8 0 018-8h24a8 8 0 018 8v32a8 8 0 01-8 8zm-16-16h8V70h-8z" fill="#5c128d"/><path d="M258 70H42a8 8 0 010-16h216a8 8 0 010 16z" fill="#5c128d"/></svg>