<svg id="non-stop" enable-background="new 0 0 300 300" height="512" viewBox="0 0 300 300" width="512" xmlns="http://www.w3.org/2000/svg"><path d="m266 212.369v25.631h-232v-144h232v93.132" fill="#f6d831"/><g fill="#5c128d"><path d="m266 246h-232c-4.418 0-8-3.582-8-8v-144c0-4.418 3.582-8 8-8h232c4.418 0 8 3.582 8 8v93.133c0 4.418-3.582 8-8 8s-8-3.582-8-8v-85.133h-216v128h216v-17.631c0-4.418 3.582-8 8-8s8 3.582 8 8v25.631c0 4.418-3.582 8-8 8z"/><path d="m98 198h-32c-4.418 0-8-3.582-8-8v-24c0-4.418 3.582-8 8-8h24v-8h-24c-4.418 0-8-3.582-8-8s3.582-8 8-8h32c4.418 0 8 3.582 8 8v24c0 4.418-3.582 8-8 8h-24v8h24c4.418 0 8 3.582 8 8s-3.582 8-8 8z"/><path d="m217.994 198.002c-1.202 0-2.423-.272-3.571-.847-3.952-1.976-5.554-6.781-3.578-10.733l18.211-36.422h-19.056c-4.418 0-8-3.582-8-8s3.582-8 8-8h32c2.772 0 5.348 1.436 6.805 3.794s1.59 5.304.35 7.784l-24 48c-1.401 2.803-4.227 4.424-7.161 4.424z"/><path d="m154 198c-4.418 0-8-3.582-8-8v-16h-24c-4.418 0-8-3.582-8-8v-24c0-4.418 3.582-8 8-8s8 3.582 8 8v16h24c4.418 0 8 3.582 8 8v24c0 4.418-3.582 8-8 8z"/><path d="m170.005 222.002c-.697 0-1.405-.092-2.11-.284-4.263-1.162-6.776-5.561-5.613-9.822l24-88c1.162-4.265 5.559-6.776 9.823-5.613 4.263 1.162 6.776 5.561 5.613 9.822l-24 88c-.97 3.558-4.195 5.897-7.713 5.897z"/><path d="m154 190c-4.418 0-8-3.582-8-8v-32c0-4.418 3.582-8 8-8s8 3.582 8 8v32c0 4.418-3.582 8-8 8z"/></g><path d="m74 62h24v32h-24z" fill="#f35cd2"/><path d="m98 102h-24c-4.418 0-8-3.582-8-8v-32c0-4.418 3.582-8 8-8h24c4.418 0 8 3.582 8 8v32c0 4.418-3.582 8-8 8zm-16-16h8v-16h-8z" fill="#5c128d"/><path d="m202 62h24v32h-24z" fill="#f35cd2"/><path d="m226 102h-24c-4.418 0-8-3.582-8-8v-32c0-4.418 3.582-8 8-8h24c4.418 0 8 3.582 8 8v32c0 4.418-3.582 8-8 8zm-16-16h8v-16h-8z" fill="#5c128d"/><path d="m258 70h-216c-4.418 0-8-3.582-8-8s3.582-8 8-8h216c4.418 0 8 3.582 8 8s-3.582 8-8 8z" fill="#5c128d"/></svg>