<svg id="double-bed" enable-background="new 0 0 300 300" height="512" viewBox="0 0 300 300" width="512" xmlns="http://www.w3.org/2000/svg"><path d="m62 130v-43.427c0-6.944 5.629-12.573 12.573-12.573h150.855c6.943 0 12.572 5.629 12.572 12.573v43.427" fill="#aa9061"/><path d="m246 130h-16v-43.427c0-2.521-2.051-4.573-4.573-4.573h-150.854c-2.522 0-4.573 2.051-4.573 4.573v43.427h-16v-43.427c0-11.344 9.229-20.573 20.573-20.573h150.854c11.344 0 20.573 9.229 20.573 20.573z" fill="#5c128d"/><path d="m178.201 210h-148.201v-48h240v48h-60.301" fill="#8690c3"/><path d="m270 218h-60.301c-4.418 0-8-3.582-8-8s3.582-8 8-8h52.301v-32h-224v32h140.201c4.418 0 8 3.582 8 8s-3.582 8-8 8h-148.201c-4.418 0-8-3.582-8-8v-48c0-4.418 3.582-8 8-8h240c4.418 0 8 3.582 8 8v48c0 4.418-3.582 8-8 8z" fill="#5c128d"/><path d="m238 130c17.673 0 32 14.327 32 32h-240c0-17.673 14.327-32 32-32h99.18z" fill="#f35cd2"/><g fill="#5c128d"><path d="m270 170h-240c-4.418 0-8-3.582-8-8 0-22.056 17.944-40 40-40h176c22.056 0 40 17.944 40 40 0 4.418-3.582 8-8 8zm-230.629-16h221.258c-3.302-9.312-12.199-16-22.629-16h-176c-10.43 0-19.327 6.688-22.629 16z"/><path d="m46 210h16v24h-16z"/><path d="m238 210h16v24h-16z"/></g><path d="m86 98h48v32h-48z" fill="#ffdea2"/><path d="m134 138h-48c-4.418 0-8-3.582-8-8v-32c0-4.418 3.582-8 8-8h48c4.418 0 8 3.582 8 8v32c0 4.418-3.582 8-8 8zm-40-16h32v-16h-32z" fill="#5c128d"/><path d="m166 98h48v32h-48z" fill="#ffdea2"/><path d="m214 138h-48c-4.418 0-8-3.582-8-8v-32c0-4.418 3.582-8 8-8h48c4.418 0 8 3.582 8 8v32c0 4.418-3.582 8-8 8zm-40-16h32v-16h-32z" fill="#5c128d"/></svg>