<svg height="512" viewBox="0 0 300 300" width="512" xmlns="http://www.w3.org/2000/svg"><path d="M62 130V86.573C62 79.629 67.629 74 74.573 74h150.855C232.371 74 238 79.629 238 86.573V130" fill="#aa9061"/><path d="M246 130h-16V86.573A4.578 4.578 0 00225.427 82H74.573A4.578 4.578 0 0070 86.573V130H54V86.573C54 75.229 63.229 66 74.573 66h150.854C236.771 66 246 75.229 246 86.573z" fill="#5c128d"/><path d="M178.201 210H30v-48h240v48h-60.301" fill="#8690c3"/><path d="M270 218h-60.301a8 8 0 010-16H262v-32H38v32h140.201a8 8 0 010 16H30a8 8 0 01-8-8v-48a8 8 0 018-8h240a8 8 0 018 8v48a8 8 0 01-8 8z" fill="#5c128d"/><path d="M238 130c17.673 0 32 14.327 32 32H30c0-17.673 14.327-32 32-32h99.18z" fill="#f35cd2"/><g fill="#5c128d"><path d="M270 170H30a8 8 0 01-8-8c0-22.056 17.944-40 40-40h176c22.056 0 40 17.944 40 40a8 8 0 01-8 8zM39.371 154h221.258c-3.302-9.312-12.199-16-22.629-16H62c-10.43 0-19.327 6.688-22.629 16zM46 210h16v24H46zM238 210h16v24h-16z"/></g><path d="M86 98h48v32H86z" fill="#ffdea2"/><path d="M134 138H86a8 8 0 01-8-8V98a8 8 0 018-8h48a8 8 0 018 8v32a8 8 0 01-8 8zm-40-16h32v-16H94z" fill="#5c128d"/><path d="M166 98h48v32h-48z" fill="#ffdea2"/><path d="M214 138h-48a8 8 0 01-8-8V98a8 8 0 018-8h48a8 8 0 018 8v32a8 8 0 01-8 8zm-40-16h32v-16h-32z" fill="#5c128d"/></svg>