<svg height="512" viewBox="0 0 300 300" width="512" xmlns="http://www.w3.org/2000/svg"><path d="M254 206c0-48.601-39.399-88-88-88s-88 39.399-88 88z" fill="#ffdea2"/><path d="M254 214H78a8 8 0 01-8-8c0-52.935 43.065-96 96-96s96 43.065 96 96a8 8 0 01-8 8zM86.396 198h159.207c-4.028-40.369-38.191-72-79.604-72s-75.574 31.631-79.603 72z" fill="#5c128d"/><path d="M86 214H62a8 8 0 010-16h24a8 8 0 010 16zM270 214h-24a8 8 0 010-16h24a8 8 0 010 16z" fill="#5c128d"/><path d="M107.076 188.971a7.975 7.975 0 01-3.128-.641 8 8 0 01-4.229-10.493c6.07-14.271 16.82-26.415 30.27-34.196a8.001 8.001 0 018.012 13.85c-10.469 6.057-18.835 15.507-23.559 26.61a8.003 8.003 0 01-7.366 4.87z" fill="#fff"/><g fill="#5c128d"><path d="M166 118a8 8 0 01-8-8V94a8 8 0 0116 0v16a8 8 0 01-8 8z"/><path d="M182 102h-32a8 8 0 010-16h32a8 8 0 010 16zM94 126H30a8 8 0 010-16h64a8 8 0 010 16zM70 150H30a8 8 0 010-16h40a8 8 0 010 16zM62 174H30a8 8 0 010-16h32a8 8 0 010 16z"/></g></svg>