<svg id="catering" enable-background="new 0 0 300 300" height="512" viewBox="0 0 300 300" width="512" xmlns="http://www.w3.org/2000/svg"><path d="m254 206c0-48.601-39.399-88-88-88s-88 39.399-88 88z" fill="#ffdea2"/><path d="m254 214h-176c-4.418 0-8-3.582-8-8 0-52.935 43.065-96 96-96s96 43.065 96 96c0 4.418-3.582 8-8 8zm-167.604-16h159.207c-4.028-40.369-38.191-72-79.604-72s-75.574 31.631-79.603 72z" fill="#5c128d"/><path d="m86 214h-24c-4.418 0-8-3.582-8-8s3.582-8 8-8h24c4.418 0 8 3.582 8 8s-3.582 8-8 8z" fill="#5c128d"/><path d="m270 214h-24c-4.418 0-8-3.582-8-8s3.582-8 8-8h24c4.418 0 8 3.582 8 8s-3.582 8-8 8z" fill="#5c128d"/><path d="m107.076 188.971c-1.044 0-2.105-.206-3.128-.641-4.065-1.729-5.959-6.427-4.229-10.493 6.07-14.271 16.82-26.415 30.27-34.196 3.822-2.212 8.717-.906 10.931 2.919 2.212 3.824.905 8.718-2.919 10.931-10.469 6.057-18.835 15.507-23.559 26.61-1.296 3.044-4.254 4.87-7.366 4.87z" fill="#fff"/><g fill="#5c128d"><path d="m166 118c-4.418 0-8-3.582-8-8v-16c0-4.418 3.582-8 8-8s8 3.582 8 8v16c0 4.418-3.582 8-8 8z"/><path d="m182 102h-32c-4.418 0-8-3.582-8-8s3.582-8 8-8h32c4.418 0 8 3.582 8 8s-3.582 8-8 8z"/><path d="m94 126h-64c-4.418 0-8-3.582-8-8s3.582-8 8-8h64c4.418 0 8 3.582 8 8s-3.582 8-8 8z"/><path d="m70 150h-40c-4.418 0-8-3.582-8-8s3.582-8 8-8h40c4.418 0 8 3.582 8 8s-3.582 8-8 8z"/><path d="m62 174h-32c-4.418 0-8-3.582-8-8s3.582-8 8-8h32c4.418 0 8 3.582 8 8s-3.582 8-8 8z"/></g></svg>