<svg xmlns="http://www.w3.org/2000/svg" viewBox="0 0 486.404 486.404"><path d="M486.404 317.919v55.38c0 18.808-50.155 34.482-111.804 34.482s-110.759-15.151-110.759-33.959v-6.269l-1.045-43.886h.522c8.359 16.196 54.335 28.735 109.714 28.735s112.327-15.673 112.327-34.482h1.045z" fill="#e2a63b"/><path d="M371.465 112.074v54.857h-1.045c0 19.331-51.722 34.482-112.849 34.482-23.51.522-47.543-2.09-70.531-7.837l-1.045 1.045c-11.494-9.404-24.555-16.718-38.661-21.42v-1.045l-1.567-57.992c3.657 17.763 52.245 31.869 111.282 31.869s113.371-15.151 113.371-33.959h1.045z" fill="#f4b844"/><path d="M371.465 113.119c0 18.808-51.722 33.959-113.371 33.959s-108.147-14.106-111.804-31.869c0-.522-.522-1.567-.522-2.09 0-18.808 50.155-34.482 112.327-34.482 62.17-.522 113.37 15.151 113.37 34.482z" fill="#fedb41"/><path d="M263.318 323.666l-.522-11.494-1.045-47.02c3.657 17.763 52.245 31.869 111.282 31.869s111.282-15.151 112.849-33.437h.522v54.335h-1.045c0 18.808-50.678 34.482-112.327 34.482-61.648-.001-101.354-12.539-109.714-28.735z" fill="#f4b844"/><path d="M188.608 358.67c14.106-13.061 25.078-29.78 30.824-48.065h2.612c11.494 1.045 22.988 1.567 35.527 1.567h5.224v11.494l1.045 43.886h-5.747c-22.988.522-45.453-2.09-67.918-7.314l-1.567-1.568z" fill="#e2a63b"/><path d="M263.318 260.972v2.612l1.045 48.588h-5.225c-13.061 0-25.078-.522-36.571-1.567h-2.612c3.657-10.971 5.224-22.465 5.224-33.959 0-7.837-1.045-15.151-2.612-22.465h2.612c10.971 1.045 21.943 1.567 33.959 1.567l4.702 2.612c-.522 1.044-.522 2.089-.522 2.612z" fill="#f4b844"/><path d="M187.041 193.576c22.988 5.747 47.02 8.359 70.531 7.837 61.126 0 112.849-15.151 112.849-34.482h1.045v61.649c-56.947 0-103.445 13.584-109.192 30.824l-4.702-2.612c-11.494 0-22.465-.522-32.914-1.567h-2.612c-4.702-24.033-17.241-45.453-36.049-61.127l1.044-.522z" fill="#e2a63b"/><g fill="#fedb41"><path d="M223.09 255.225c-5.224-24.033-18.286-45.975-37.094-62.171-11.494-10.449-25.078-17.763-39.706-21.943-10.449-3.657-21.943-5.224-32.914-5.224C51.204 165.363.526 214.996.004 277.167c-.522 62.171 49.11 112.849 111.282 113.371 28.735 0 55.902-10.449 77.322-29.78 14.629-13.584 25.6-30.824 31.347-49.633 3.657-10.971 5.224-21.943 5.224-33.437.001-7.312-2.089-15.149-2.089-22.463zM485.882 262.539v1.045c-1.567 18.286-52.245 33.437-112.849 33.437s-107.625-14.106-111.282-31.869v-2.612c0-1.045 0-2.09.522-3.135 5.747-17.241 52.245-30.824 109.192-30.824h1.567c61.65-.001 112.85 15.15 112.85 33.958z"/></g><path d="M113.376 264.106c-9.404 0-17.241-7.837-17.241-17.241s7.837-17.241 17.241-17.241 17.241 7.837 17.241 17.241c0 5.747 4.702 10.449 10.449 10.449s10.449-4.702 10.449-10.449c0-16.718-11.494-31.869-27.69-36.571v-4.18c0-5.747-4.702-10.449-10.449-10.449s-10.449 4.702-10.449 10.449v4.18a36.485 36.485 0 00-27.69 36.571c0 20.898 17.241 38.139 38.139 38.139 9.404 0 17.241 7.837 17.241 17.241s-7.837 17.241-17.241 17.241-17.241-7.837-17.241-17.241c0-5.747-4.702-10.449-10.449-10.449s-10.449 4.702-10.449 10.449c0 17.241 11.494 31.869 27.69 36.571v8.359c0 5.747 4.702 10.449 10.449 10.449s10.449-4.702 10.449-10.449v-8.359c20.375-5.747 31.869-27.167 25.6-47.543-4.702-15.673-19.331-27.167-36.049-27.167z" fill="#e2a63b"/></svg>