<svg height="512" viewBox="0 0 300 300" width="512" xmlns="http://www.w3.org/2000/svg"><path d="M182 152.373V206c0 33.137-26.863 60-60 60h-8c-33.137 0-60-26.863-60-60V94c0-33.137 26.863-60 60-60h8c33.137 0 60 26.863 60 60v14.871" fill="#26deeb"/><path d="M122 274h-8c-37.495 0-68-30.505-68-68V94c0-37.495 30.505-68 68-68h8c37.495 0 68 30.505 68 68v14.871a8 8 0 01-16 0V94c0-28.673-23.327-52-52-52h-8c-28.673 0-52 23.327-52 52v112c0 28.673 23.327 52 52 52h8c28.673 0 52-23.327 52-52v-53.627a8 8 0 0116 0V206c0 37.495-30.505 68-68 68z" fill="#5c128d"/><circle cx="118" cy="106" fill="#816982" r="40"/><path d="M118 154c-26.467 0-48-21.532-48-48s21.533-48 48-48 48 21.532 48 48-21.533 48-48 48zm0-80c-17.645 0-32 14.355-32 32s14.355 32 32 32 32-14.355 32-32-14.355-32-32-32z" fill="#5c128d"/><path d="M230 122H118c-8.837 0-16-7.163-16-16s7.163-16 16-16h112c8.837 0 16 7.163 16 16s-7.163 16-16 16z" fill="#8690c3"/><path d="M230 130H118c-13.234 0-24-10.767-24-24s10.766-24 24-24h112c13.234 0 24 10.767 24 24s-10.766 24-24 24zM118 98c-4.411 0-8 3.589-8 8s3.589 8 8 8h112c4.411 0 8-3.589 8-8s-3.589-8-8-8z" fill="#5c128d"/><path d="M118 226v-32" fill="#816982"/><g fill="#5c128d"><path d="M118 234a8 8 0 01-8-8v-32a8 8 0 0116 0v32a8 8 0 01-8 8z"/><circle cx="118" cy="186" r="16"/></g></svg>