<svg height="512" viewBox="0 0 300 300" width="512" xmlns="http://www.w3.org/2000/svg"><path d="M46 149.749h128v112H46z" fill="#fff"/><path d="M174 269.749H46a8 8 0 01-8-8v-112a8 8 0 018-8h128a8 8 0 018 8v112a8 8 0 01-8 8zm-120-16h112v-96H54z" fill="#5c128d"/><path d="M78 181.749h64v80H78z" fill="#26deeb"/><path d="M142 269.749H78a8 8 0 01-8-8v-80a8 8 0 018-8h64a8 8 0 018 8v80a8 8 0 01-8 8zm-56-16h48v-64H86z" fill="#5c128d"/><path d="M110 245.749a8 8 0 01-8-8v-56a8 8 0 0116 0v56a8 8 0 01-8 8z" fill="#5c128d"/><path d="M46 109.749h40v40H46z" fill="#26deeb"/><path d="M86 157.749H46a8 8 0 01-8-8v-40a8 8 0 018-8h40a8 8 0 018 8v40a8 8 0 01-8 8zm-32-16h24v-24H54z" fill="#5c128d"/><path d="M134 109.749h40v40h-40z" fill="#26deeb"/><path d="M174 157.749h-40a8 8 0 01-8-8v-40a8 8 0 018-8h40a8 8 0 018 8v40a8 8 0 01-8 8zm-32-16h24v-24h-24z" fill="#5c128d"/><path d="M86 109.749h48v40H86z" fill="#26deeb"/><path d="M134 157.749H86a8 8 0 01-8-8v-40a8 8 0 018-8h48a8 8 0 018 8v40a8 8 0 01-8 8zm-40-16h32v-24H94z" fill="#5c128d"/><path d="M46 69.749h40v40H46z" fill="#26deeb"/><path d="M86 117.749H46a8 8 0 01-8-8v-40a8 8 0 018-8h40a8 8 0 018 8v40a8 8 0 01-8 8zm-32-16h24v-24H54z" fill="#5c128d"/><path d="M134 37.749h40v72h-40z" fill="#26deeb"/><path d="M174 117.749h-40a8 8 0 01-8-8v-72a8 8 0 018-8h40a8 8 0 018 8v72a8 8 0 01-8 8zm-32-16h24v-56h-24z" fill="#5c128d"/><path d="M134 37.749l-48 32v40h48z" fill="#26deeb"/><path d="M134 117.749H86a8 8 0 01-8-8v-40a8 8 0 013.562-6.656l48-32A7.998 7.998 0 01142 37.75v72a8 8 0 01-8 7.999zm-40-16h32V52.697L94 74.03z" fill="#5c128d"/><g fill="#f6d831"><path d="M233.768 87.061l6.024 15.658 19.493 2.293c2.626 0 3.717 3.253 1.593 4.748l-13.402 11.094 3.656 17.951c.811 2.418-2.047 4.428-4.171 2.934l-15.77-11.802-15.77 11.802c-2.124 1.494-4.982-.516-4.171-2.934l3.656-17.951-13.402-11.094c-2.124-1.494-1.032-4.748 1.593-4.748l19.493-2.293 6.024-15.658c.81-2.418 4.343-2.418 5.154 0zM233.768 151.061l6.024 15.658 19.493 2.293c2.626 0 3.717 3.253 1.593 4.748l-13.402 11.094 3.656 17.951c.811 2.418-2.047 4.428-4.171 2.934l-15.77-11.802-15.77 11.802c-2.124 1.494-4.982-.516-4.171-2.934l3.656-17.951-13.402-11.094c-2.124-1.494-1.032-4.748 1.593-4.748l19.493-2.293 6.024-15.658c.81-2.418 4.343-2.418 5.154 0zM233.768 215.061l6.024 15.658 19.493 2.293c2.626 0 3.717 3.253 1.593 4.748l-13.402 11.094 3.656 17.951c.811 2.418-2.047 4.428-4.171 2.934l-15.77-11.802-15.77 11.802c-2.124 1.494-4.982-.516-4.171-2.934l3.656-17.951-13.402-11.094c-2.124-1.494-1.032-4.748 1.593-4.748l19.493-2.293 6.024-15.658c.81-2.418 4.343-2.418 5.154 0z"/></g></svg>