<svg id="_x33_stars" enable-background="new 0 0 300 300" height="512" viewBox="0 0 300 300" width="512" xmlns="http://www.w3.org/2000/svg"><path d="m46 149.749h128v112h-128z" fill="#fff"/><path d="m174 269.749h-128c-4.418 0-8-3.582-8-8v-112c0-4.418 3.582-8 8-8h128c4.418 0 8 3.582 8 8v112c0 4.418-3.582 8-8 8zm-120-16h112v-96h-112z" fill="#5c128d"/><path d="m78 181.749h64v80h-64z" fill="#26deeb"/><path d="m142 269.749h-64c-4.418 0-8-3.582-8-8v-80c0-4.418 3.582-8 8-8h64c4.418 0 8 3.582 8 8v80c0 4.418-3.582 8-8 8zm-56-16h48v-64h-48z" fill="#5c128d"/><path d="m110 245.749c-4.418 0-8-3.582-8-8v-56c0-4.418 3.582-8 8-8s8 3.582 8 8v56c0 4.418-3.582 8-8 8z" fill="#5c128d"/><path d="m46 109.749h40v40h-40z" fill="#26deeb"/><path d="m86 157.749h-40c-4.418 0-8-3.582-8-8v-40c0-4.418 3.582-8 8-8h40c4.418 0 8 3.582 8 8v40c0 4.418-3.582 8-8 8zm-32-16h24v-24h-24z" fill="#5c128d"/><path d="m134 109.749h40v40h-40z" fill="#26deeb"/><path d="m174 157.749h-40c-4.418 0-8-3.582-8-8v-40c0-4.418 3.582-8 8-8h40c4.418 0 8 3.582 8 8v40c0 4.418-3.582 8-8 8zm-32-16h24v-24h-24z" fill="#5c128d"/><path d="m86 109.749h48v40h-48z" fill="#26deeb"/><path d="m134 157.749h-48c-4.418 0-8-3.582-8-8v-40c0-4.418 3.582-8 8-8h48c4.418 0 8 3.582 8 8v40c0 4.418-3.582 8-8 8zm-40-16h32v-24h-32z" fill="#5c128d"/><path d="m46 69.749h40v40h-40z" fill="#26deeb"/><path d="m86 117.749h-40c-4.418 0-8-3.582-8-8v-40c0-4.418 3.582-8 8-8h40c4.418 0 8 3.582 8 8v40c0 4.418-3.582 8-8 8zm-32-16h24v-24h-24z" fill="#5c128d"/><path d="m134 37.749h40v72h-40z" fill="#26deeb"/><path d="m174 117.749h-40c-4.418 0-8-3.582-8-8v-72c0-4.418 3.582-8 8-8h40c4.418 0 8 3.582 8 8v72c0 4.418-3.582 8-8 8zm-32-16h24v-56h-24z" fill="#5c128d"/><path d="m134 37.749-48 32v40h48z" fill="#26deeb"/><path d="m134 117.749h-48c-4.418 0-8-3.582-8-8v-40c0-2.675 1.337-5.173 3.562-6.656l48-32c2.455-1.637 5.61-1.789 8.212-.397 2.602 1.393 4.226 4.104 4.226 7.054v72c0 4.417-3.582 7.999-8 7.999zm-40-16h32v-49.052l-32 21.333z" fill="#5c128d"/><g fill="#f6d831"><path d="m233.768 87.061 6.024 15.658 19.493 2.293c2.626 0 3.717 3.253 1.593 4.748l-13.402 11.094 3.656 17.951c.811 2.418-2.047 4.428-4.171 2.934l-15.77-11.802-15.77 11.802c-2.124 1.494-4.982-.516-4.171-2.934l3.656-17.951-13.402-11.094c-2.124-1.494-1.032-4.748 1.593-4.748l19.493-2.293 6.024-15.658c.81-2.418 4.343-2.418 5.154 0z"/><path d="m233.768 151.061 6.024 15.658 19.493 2.293c2.626 0 3.717 3.253 1.593 4.748l-13.402 11.094 3.656 17.951c.811 2.418-2.047 4.428-4.171 2.934l-15.77-11.802-15.77 11.802c-2.124 1.494-4.982-.516-4.171-2.934l3.656-17.951-13.402-11.094c-2.124-1.494-1.032-4.748 1.593-4.748l19.493-2.293 6.024-15.658c.81-2.418 4.343-2.418 5.154 0z"/><path d="m233.768 215.061 6.024 15.658 19.493 2.293c2.626 0 3.717 3.253 1.593 4.748l-13.402 11.094 3.656 17.951c.811 2.418-2.047 4.428-4.171 2.934l-15.77-11.802-15.77 11.802c-2.124 1.494-4.982-.516-4.171-2.934l3.656-17.951-13.402-11.094c-2.124-1.494-1.032-4.748 1.593-4.748l19.493-2.293 6.024-15.658c.81-2.418 4.343-2.418 5.154 0z"/></g></svg>