<svg height="512" viewBox="0 0 300 300" width="512" xmlns="http://www.w3.org/2000/svg"><path d="M270 198h-8.336c-3.861-46.572-41.106-83.813-87.681-87.666.005-.112.017-.221.017-.334v-8h8a8 8 0 000-16h-32a8 8 0 000 16h8v8c0 .113.012.223.017.334-46.574 3.853-83.82 41.093-87.681 87.666H62a8 8 0 000 16h208a8 8 0 000-16zm-104-72c41.412 0 75.575 31.631 79.604 72H86.396c4.029-40.369 38.192-72 79.604-72z"/><path d="M129.988 143.641c-13.449 7.781-24.199 19.926-30.27 34.196a8 8 0 0014.722 6.264c4.724-11.104 13.09-20.554 23.559-26.61a8.001 8.001 0 00-8.011-13.85z"/><g fill="#428bf4"><path d="M94 126H30a8 8 0 010-16h64a8 8 0 010 16zM70 150H30a8 8 0 010-16h40a8 8 0 010 16zM62 174H30a8 8 0 010-16h32a8 8 0 010 16z"/></g></svg>