<svg id="catering" enable-background="new 0 0 300 300" height="512" viewBox="0 0 300 300" width="512" xmlns="http://www.w3.org/2000/svg"><path d="m270 198h-8.336c-3.861-46.572-41.106-83.813-87.681-87.666.005-.112.017-.221.017-.334v-8h8c4.418 0 8-3.582 8-8s-3.582-8-8-8h-32c-4.418 0-8 3.582-8 8s3.582 8 8 8h8v8c0 .113.012.223.017.334-46.574 3.853-83.82 41.093-87.681 87.666h-8.336c-4.418 0-8 3.582-8 8s3.582 8 8 8h208c4.418 0 8-3.582 8-8s-3.582-8-8-8zm-104-72c41.412 0 75.575 31.631 79.604 72h-159.208c4.029-40.369 38.192-72 79.604-72z"/><path d="m129.988 143.641c-13.449 7.781-24.199 19.926-30.27 34.196-1.729 4.066.164 8.764 4.229 10.493 1.022.435 2.084.641 3.128.641 3.111 0 6.07-1.826 7.365-4.87 4.724-11.104 13.09-20.554 23.559-26.61 3.824-2.213 5.131-7.106 2.919-10.931-2.213-3.826-7.107-5.131-10.93-2.919z"/><g fill="#428bf4"><path d="m94 126h-64c-4.418 0-8-3.582-8-8s3.582-8 8-8h64c4.418 0 8 3.582 8 8s-3.582 8-8 8z"/><path d="m70 150h-40c-4.418 0-8-3.582-8-8s3.582-8 8-8h40c4.418 0 8 3.582 8 8s-3.582 8-8 8z"/><path d="m62 174h-32c-4.418 0-8-3.582-8-8s3.582-8 8-8h32c4.418 0 8 3.582 8 8s-3.582 8-8 8z"/></g></svg>