<svg height="512" viewBox="0 0 300 300" width="512" xmlns="http://www.w3.org/2000/svg"><ellipse cx="150" cy="262" fill="#d6d6d6" rx="64" ry="12"/><path d="M204.452 197.494C222.466 171.099 238 142.419 238 122c0-48.602-39.399-88-88-88s-88 39.398-88 88 88 144 88 144 17.896-19.4 37.547-45.161M150 186c-35.346 0-64-28.654-64-64s28.654-64 64-64 64 28.654 64 64-28.654 64-64 64z" fill="#2ee52b"/><g fill="#5c128d"><path d="M150 274a7.998 7.998 0 01-5.88-2.576c-.911-.986-22.555-24.521-44.565-54.46C69.327 175.848 54 143.897 54 122c0-52.935 43.065-96 96-96s96 43.065 96 96c0 19.117-11.756 46.034-34.94 80.004a7.999 7.999 0 01-11.118 2.098 8 8 0 01-2.098-11.117C224.421 154.044 230 132.89 230 122c0-44.112-35.888-80-80-80s-80 35.888-80 80c0 18.135 14.648 47.656 42.36 85.371 14.762 20.091 29.678 37.576 37.64 46.63 6.805-7.737 18.686-21.628 31.186-38.014a8 8 0 0112.722 9.703c-19.652 25.763-37.287 44.931-38.027 45.733A7.999 7.999 0 01150 274zm0-80c-39.701 0-72-32.299-72-72s32.299-72 72-72 72 32.299 72 72-32.299 72-72 72zm0-128c-30.878 0-56 25.121-56 56s25.122 56 56 56 56-25.121 56-56-25.122-56-56-56z"/><path d="M126 162a8 8 0 01-8-8V90a8 8 0 0116 0v64a8 8 0 01-8 8z"/><path d="M166 130h-40a8 8 0 010-16h40a8 8 0 010 16z"/><path d="M174 162a8 8 0 01-8-8V90a8 8 0 0116 0v64a8 8 0 01-8 8z"/></g></svg>