<svg id="hotel-pin" enable-background="new 0 0 300 300" height="512" viewBox="0 0 300 300" width="512" xmlns="http://www.w3.org/2000/svg"><ellipse cx="150" cy="262" fill="#d6d6d6" rx="64" ry="12"/><path d="m204.452 197.494c18.014-26.395 33.548-55.075 33.548-75.494 0-48.602-39.399-88-88-88s-88 39.398-88 88 88 144 88 144 17.896-19.4 37.547-45.161m-37.547-34.839c-35.346 0-64-28.654-64-64s28.654-64 64-64 64 28.654 64 64-28.654 64-64 64z" fill="#2ee52b"/><g fill="#5c128d"><path d="m150 274c-2.234 0-4.366-.934-5.88-2.576-.911-.986-22.555-24.521-44.565-54.46-30.228-41.116-45.555-73.067-45.555-94.964 0-52.935 43.065-96 96-96s96 43.065 96 96c0 19.117-11.756 46.034-34.94 80.004-2.491 3.649-7.467 4.591-11.118 2.098-3.649-2.49-4.589-7.468-2.098-11.117 26.577-38.941 32.156-60.095 32.156-70.985 0-44.112-35.888-80-80-80s-80 35.888-80 80c0 18.135 14.648 47.656 42.36 85.371 14.762 20.091 29.678 37.576 37.64 46.63 6.805-7.737 18.686-21.628 31.186-38.014 2.681-3.514 7.7-4.188 11.213-1.509 3.513 2.68 4.188 7.699 1.509 11.212-19.652 25.763-37.287 44.931-38.027 45.733-1.515 1.643-3.647 2.577-5.881 2.577zm0-80c-39.701 0-72-32.299-72-72s32.299-72 72-72 72 32.299 72 72-32.299 72-72 72zm0-128c-30.878 0-56 25.121-56 56s25.122 56 56 56 56-25.121 56-56-25.122-56-56-56z"/><path d="m126 162c-4.418 0-8-3.582-8-8v-64c0-4.418 3.582-8 8-8s8 3.582 8 8v64c0 4.418-3.582 8-8 8z"/><path d="m166 130h-40c-4.418 0-8-3.582-8-8s3.582-8 8-8h40c4.418 0 8 3.582 8 8s-3.582 8-8 8z"/><path d="m174 162c-4.418 0-8-3.582-8-8v-64c0-4.418 3.582-8 8-8s8 3.582 8 8v64c0 4.418-3.582 8-8 8z"/></g></svg>