<svg height="44pt" viewBox="0 0 512 512" width="512pt" xmlns="http://www.w3.org/2000/svg"><path d="M137.75 155.879L10.031 283.602l218.367 218.367 236.325-236.32 3.136-148.72-72.789-72.788-148.718 3.136zm255.523 27.426c-17.832 17.836-46.746 17.836-64.582 0-17.832-17.832-17.832-46.746 0-64.578 17.836-17.836 46.75-17.836 64.582 0 17.836 17.832 17.836 46.746 0 64.578zm0 0" fill="#36d28f"/><path d="M503.773 8.227C493.551-2 476.148-2.715 454.766 6.21c-16.137 6.738-33.602 18.48-49.93 33.477-.879-.88-1.742-1.77-2.633-2.633-1.969-1.918-4.578-2.993-7.336-2.961L246.148 37.23a10.058 10.058 0 00-6.886 2.938l-51.453 51.453c-3.918 3.922-3.918 10.281 0 14.2a10.039 10.039 0 0014.199 0l48.601-48.598 139.68-2.95c-12.242 13.391-22.277 27.524-29.172 41.059-14.305-.031-28.62 5.395-39.512 16.285-10.52 10.52-16.316 24.512-16.316 39.39 0 14.88 5.793 28.868 16.316 39.388 10.52 10.523 24.512 16.316 39.391 16.316s28.867-5.793 39.39-16.316c10.52-10.52 16.313-24.508 16.313-39.387 0-2.48-.176-4.934-.492-7.348l-.012-.105c-1.601-12.055-7.066-23.196-15.808-31.938a55.466 55.466 0 00-18.637-12.3c5.844-10.286 13.727-20.938 23.102-31.215l52.89 52.89-2.96 140.403L228.41 487.762 24.238 283.59 144.86 162.969c3.922-3.922 3.922-10.278 0-14.2s-10.273-3.921-14.199 0L2.941 276.493a10.035 10.035 0 000 14.195L221.312 509.06A10.003 10.003 0 00228.41 512c2.57 0 5.14-.98 7.102-2.941l236.32-236.32a10.06 10.06 0 002.938-6.891l3.14-148.72a10.054 10.054 0 00-2.941-7.308l-2.656-2.656c14.996-16.328 26.738-33.793 33.476-49.93 8.926-21.379 8.211-38.785-2.016-49.007zm-142.78 178.406c-9.516 0-18.462-3.707-25.192-10.438-6.727-6.726-10.434-15.675-10.434-25.191s3.703-18.461 10.434-25.191a35.405 35.405 0 0117.133-9.493c-3.997 15.64-1.907 28.356 6.242 36.504 5.488 5.488 13.008 8.238 22.097 8.238 4.45 0 9.282-.68 14.426-1.996-1.48 6.434-4.73 12.344-9.512 17.13-6.73 6.73-15.675 10.437-25.195 10.437zm33.398-48.07c-11.559 3.765-18.461 2.62-21.016.062-3.21-3.21-3.102-11.14.066-20.988a35.425 35.425 0 0112.746 8.175 35.547 35.547 0 018.204 12.75zM487.258 49.5c-5.781 13.844-16 29.02-29.16 43.45L419.05 53.897c14.43-13.16 29.601-23.378 43.449-29.16 12.598-5.258 23.227-6.168 27.074-2.316 3.856 3.851 2.946 14.48-2.316 27.078zm0 0"/><path d="M162.488 275.488c-10.37 10.371-16.082 24.157-16.082 38.824 0 10.368 2.867 20.286 8.203 28.88l-9.922 9.921a10.039 10.039 0 000 14.2 10.01 10.01 0 007.098 2.94c2.57 0 5.14-.98 7.102-2.94l9.261-9.262a55.06 55.06 0 0033.192 11.164c.863 0 1.734-.02 2.601-.063 15.399-.734 29.223-8.324 37.926-20.816 8.383-12.031 10.656-26.945 6.238-40.918-2.074-6.559-5.527-12.93-10.292-19.031l40.824-40.828a34.72 34.72 0 012.953 14.054c0 9.301-3.621 18.047-10.2 24.625-3.921 3.918-3.921 10.278 0 14.2 3.919 3.917 10.274 3.921 14.2 0 10.367-10.372 16.078-24.16 16.078-38.825 0-10.367-2.863-20.289-8.2-28.883l9.923-9.921c3.918-3.918 3.918-10.278 0-14.2-3.922-3.918-10.278-3.918-14.2 0l-9.265 9.266c-10.2-7.719-22.883-11.73-35.793-11.105-15.399.734-29.223 8.324-37.926 20.816-8.383 12.035-10.652 26.95-6.238 40.918 2.074 6.559 5.531 12.93 10.297 19.031l-40.828 40.828a34.72 34.72 0 01-2.954-14.054c0-9.301 3.625-18.047 10.204-24.621 3.917-3.922 3.917-10.278 0-14.2a10.039 10.039 0 00-14.2 0zm66.473 37.985c2.523 7.984 1.226 16.507-3.566 23.386-5.118 7.344-13.282 11.801-22.41 12.239a34.868 34.868 0 01-20.43-5.453l40.902-40.903c2.512 3.551 4.367 7.14 5.504 10.73zm-9.848-51.024c-2.523-7.98-1.222-16.504 3.57-23.387 5.114-7.34 13.282-11.8 22.407-12.234a34.92 34.92 0 0120.43 5.453l-40.903 40.903c-2.512-3.555-4.367-7.141-5.504-10.735zm0 0M157.07 131.125c1.618 3.91 5.676 6.457 9.899 6.184 4.02-.258 7.578-2.985 8.875-6.797 1.336-3.918.058-8.352-3.137-10.98-3.328-2.739-8.184-3.02-11.805-.684-4.015 2.593-5.66 7.855-3.832 12.277zm0 0"/></svg>