<svg height="44pt" viewBox="0 0 512.0002 512" width="512pt" xmlns="http://www.w3.org/2000/svg"><path d="m137.75 155.878906-127.71875 127.722656 218.367188 218.367188 236.324218-236.320312 3.136719-148.71875-72.789063-72.789063-148.71875 3.136719zm255.523438 27.425782c-17.832032 17.835937-46.746094 17.835937-64.582032 0-17.832031-17.832032-17.832031-46.746094 0-64.578126 17.835938-17.835937 46.75-17.835937 64.582032 0 17.835937 17.832032 17.835937 46.746094 0 64.578126zm0 0" fill="#36d28f"/><path d="m503.773438 8.226562c-10.222657-10.226562-27.625-10.941406-49.007813-2.015624-16.136719 6.738281-33.601563 18.480468-49.929687 33.476562-.878907-.878906-1.742188-1.769531-2.632813-2.632812-1.96875-1.917969-4.578125-2.992188-7.335937-2.960938l-148.71875 3.136719c-2.585938.054687-5.054688 1.109375-6.886719 2.9375l-51.453125 51.453125c-3.917969 3.921875-3.917969 10.28125 0 14.199218 3.921875 3.921876 10.277344 3.921876 14.199218 0l48.601563-48.597656 139.679687-2.949218c-12.242187 13.390624-22.277343 27.523437-29.171874 41.058593-14.304688-.03125-28.621094 5.394531-39.511719 16.285157-10.519531 10.519531-16.316407 24.511718-16.316407 39.390624 0 14.878907 5.792969 28.867188 16.316407 39.386719 10.519531 10.523438 24.511719 16.316407 39.390625 16.316407s28.867187-5.792969 39.390625-16.316407c10.519531-10.519531 16.3125-24.507812 16.3125-39.386719 0-2.480468-.175781-4.933593-.492188-7.347656-.003906-.035156-.007812-.070312-.011719-.105468-1.601562-12.054688-7.066406-23.195313-15.808593-31.9375-5.492188-5.488282-11.851563-9.585938-18.636719-12.300782 5.84375-10.285156 13.726562-20.9375 23.101562-31.214844l52.890626 52.890626-2.960938 140.402343-226.371094 226.367188-204.171875-204.171875 120.621094-120.621094c3.921875-3.921875 3.921875-10.277344 0-14.199219s-10.273437-3.921875-14.199219 0l-127.71875 127.722657c-1.882812 1.882812-2.941406 4.433593-2.941406 7.097656 0 2.664062 1.058594 5.214844 2.941406 7.097656l218.371094 218.371094c1.960938 1.960937 4.527344 2.941406 7.097656 2.941406 2.570313 0 5.140625-.980469 7.101563-2.941406l236.320312-236.320313c1.828125-1.832031 2.882813-4.300781 2.9375-6.890625l3.140625-148.71875c.054688-2.734375-1.007812-5.375-2.941406-7.308594l-2.65625-2.65625c14.996094-16.328124 26.738281-33.792968 33.476562-49.929687 8.925782-21.378906 8.210938-38.785156-2.015624-49.007813zm-142.78125 178.40625c-9.515626 0-18.460938-3.707031-25.191407-10.4375-6.726562-6.726562-10.433593-15.675781-10.433593-25.191406s3.703124-18.460937 10.433593-25.191406c4.886719-4.886719 10.851563-8.042969 17.132813-9.492188-3.996094 15.640626-1.90625 28.355469 6.242187 36.503907 5.488281 5.488281 13.007813 8.238281 22.097657 8.238281 4.449218 0 9.28125-.679688 14.425781-1.996094-1.480469 6.433594-4.730469 12.34375-9.511719 17.128906-6.730469 6.730469-15.675781 10.4375-25.195312 10.4375zm33.398437-48.070312c-11.558594 3.765625-18.460937 2.621094-21.015625.0625-3.210938-3.210938-3.101562-11.140625.066406-20.988281 4.652344 1.726562 9.011719 4.445312 12.746094 8.175781 3.675781 3.675781 6.441406 8.019531 8.203125 12.75zm92.867187-89.0625c-5.78125 13.84375-16 29.019531-29.160156 43.449219l-39.046875-39.050781c14.429688-13.160157 29.601563-23.378907 43.449219-29.160157 12.597656-5.257812 23.226562-6.167969 27.074219-2.316406 3.855469 3.851563 2.945312 14.480469-2.316407 27.078125zm0 0"/><path d="m162.488281 275.488281c-10.371093 10.371094-16.082031 24.15625-16.082031 38.824219 0 10.367188 2.867188 20.285156 8.203125 28.878906l-9.921875 9.921875c-3.921875 3.921875-3.921875 10.277344 0 14.199219 1.960938 1.960938 4.53125 2.941406 7.097656 2.941406 2.570313 0 5.140625-.980468 7.101563-2.941406l9.261719-9.261719c9.507812 7.199219 21.179687 11.164063 33.191406 11.164063.863281 0 1.734375-.019532 2.601562-.0625 15.398438-.734375 29.222656-8.324219 37.925782-20.816406 8.382812-12.03125 10.65625-26.945313 6.238281-40.917969-2.074219-6.558594-5.527344-12.929688-10.292969-19.03125l40.824219-40.828125c1.929687 4.371094 2.953125 9.132812 2.953125 14.054687 0 9.300781-3.621094 18.046875-10.199219 24.625-3.921875 3.917969-3.921875 10.277344 0 14.199219 3.917969 3.917969 10.273437 3.921875 14.199219 0 10.367187-10.371094 16.078125-24.160156 16.078125-38.824219 0-10.367187-2.863281-20.289062-8.199219-28.882812l9.921875-9.921875c3.917969-3.917969 3.917969-10.277344 0-14.199219-3.921875-3.917969-10.277344-3.917969-14.199219 0l-9.265625 9.265625c-10.199219-7.71875-22.882812-11.730469-35.792969-11.105469-15.398437.734375-29.222656 8.324219-37.925781 20.816407-8.382812 12.035156-10.652343 26.949218-6.238281 40.917968 2.074219 6.558594 5.53125 12.929688 10.296875 19.03125l-40.828125 40.828125c-1.929688-4.371093-2.953125-9.132812-2.953125-14.054687 0-9.300782 3.625-18.046875 10.203125-24.621094 3.917969-3.921875 3.917969-10.277344 0-14.199219-3.921875-3.921875-10.277344-3.921875-14.199219 0zm66.472657 37.984375c2.523437 7.984375 1.226562 16.507813-3.566407 23.386719-5.117187 7.34375-13.28125 11.800781-22.410156 12.238281-7.257813.351563-14.398437-1.601562-20.429687-5.453125l40.902343-40.902343c2.511719 3.550781 4.367188 7.140624 5.503907 10.730468zm-9.847657-51.023437c-2.523437-7.980469-1.222656-16.503907 3.570313-23.386719 5.113281-7.339844 13.28125-11.800781 22.40625-12.234375 7.25-.347656 14.394531 1.601563 20.429687 5.453125l-40.902343 40.902344c-2.511719-3.554688-4.367188-7.140625-5.503907-10.734375zm0 0"/><path d="m157.070312 131.125c1.617188 3.910156 5.675782 6.457031 9.898438 6.183594 4.019531-.257813 7.578125-2.984375 8.875-6.796875 1.335938-3.917969.058594-8.351563-3.136719-10.980469-3.328125-2.738281-8.183593-3.019531-11.804687-.683594-4.015625 2.59375-5.660156 7.855469-3.832032 12.277344zm0 0"/></svg>