<svg height="512" viewBox="0 0 300 300" width="512" xmlns="http://www.w3.org/2000/svg"><path d="M61.5 198h178v17h-178z" fill="#ffdea2"/><path d="M246 204v18H54v-16" fill="#ffdea2"/><path d="M246 230H54a8 8 0 01-8-8v-24h16v16h176v-18h16v26a8 8 0 01-8 8z" fill="#5c128d"/><path d="M246 270H54c0-13.255 10.745-24 24-24h144c13.255 0 24 10.745 24 24z" fill="#816982"/><path d="M246 278H54a8 8 0 01-8-8c0-17.645 14.355-32 32-32h144c17.645 0 32 14.355 32 32a8 8 0 01-8 8zM64.147 262h171.705c-2.771-4.779-7.942-8-13.853-8H78c-5.91 0-11.082 3.221-13.853 8z" fill="#5c128d"/><path d="M126 198h120c0-53.019-42.981-96-96-96s-96 42.981-96 96h40" fill="#f6d831"/><path d="M246 206H126a8 8 0 010-16h111.64c-4.053-44.79-41.812-80-87.64-80s-83.587 35.21-87.64 80H94a8 8 0 010 16H54a8 8 0 01-8-8c0-57.346 46.654-104 104-104s104 46.654 104 104a8 8 0 01-8 8z" fill="#5c128d"/><path d="M134 222h32v24h-32z" fill="#816982"/><path d="M166 254h-32a8 8 0 01-8-8v-24a8 8 0 018-8h32a8 8 0 018 8v24a8 8 0 01-8 8zm-24-16h16v-8h-16zM142 78h16v32h-16z" fill="#5c128d"/><path d="M134 70h32v16h-32z" fill="#5c128d"/><g fill="#f6d831"><path d="M150 62a8 8 0 01-8-8V30a8 8 0 0116 0v24a8 8 0 01-8 8zM222 86a8 8 0 01-5.657-13.656l16-16a8 8 0 0111.314 11.313l-16 16A7.974 7.974 0 01222 86zM245.999 110.002a8.001 8.001 0 01-2.529-15.592l24-8a7.998 7.998 0 0110.12 5.06 8.002 8.002 0 01-5.06 10.12l-24 8a8.02 8.02 0 01-2.531.412zM190.001 70.002a8.001 8.001 0 01-7.591-10.532l8-24a8.004 8.004 0 0110.12-5.06 8.001 8.001 0 015.06 10.119l-8 24a8.004 8.004 0 01-7.589 5.473zM78 86a7.974 7.974 0 01-5.657-2.343l-16-16a8 8 0 1111.314-11.313l16 16A8 8 0 0178 86zM54.001 110.002a8.015 8.015 0 01-2.531-.412l-24-8a8.002 8.002 0 015.06-15.18l24 8a8.002 8.002 0 01-2.529 15.592zM109.999 70.002a8.004 8.004 0 01-7.589-5.472l-8-24a8 8 0 015.06-10.119 7.998 7.998 0 0110.12 5.06l8 24a8 8 0 01-7.591 10.531z"/></g><path d="M91.223 164.398a7.958 7.958 0 01-4.621-1.476 8 8 0 01-1.897-11.153c7.846-11.062 18.434-20.013 30.619-25.882a8 8 0 116.944 14.414 64.388 64.388 0 00-24.512 20.724 7.992 7.992 0 01-6.533 3.373z" fill="#fff"/></svg>