<svg id="meal" enable-background="new 0 0 300 300" height="512" viewBox="0 0 300 300" width="512" xmlns="http://www.w3.org/2000/svg"><path d="m61.5 198h178v17h-178z" fill="#ffdea2"/><path d="m246 204v18h-192v-16" fill="#ffdea2"/><path d="m246 230h-192c-4.418 0-8-3.582-8-8v-24h16v16h176v-18h16v26c0 4.418-3.582 8-8 8z" fill="#5c128d"/><path d="m246 270h-192c0-13.255 10.745-24 24-24h144c13.255 0 24 10.745 24 24z" fill="#816982"/><path d="m246 278h-192c-4.418 0-8-3.582-8-8 0-17.645 14.355-32 32-32h144c17.645 0 32 14.355 32 32 0 4.418-3.582 8-8 8zm-181.853-16h171.705c-2.771-4.779-7.942-8-13.853-8h-143.999c-5.91 0-11.082 3.221-13.853 8z" fill="#5c128d"/><path d="m126 198h120c0-53.019-42.981-96-96-96s-96 42.981-96 96h40" fill="#f6d831"/><path d="m246 206h-120c-4.418 0-8-3.582-8-8s3.582-8 8-8h111.64c-4.053-44.79-41.812-80-87.64-80s-83.587 35.21-87.64 80h31.64c4.418 0 8 3.582 8 8s-3.582 8-8 8h-40c-4.418 0-8-3.582-8-8 0-57.346 46.654-104 104-104s104 46.654 104 104c0 4.418-3.582 8-8 8z" fill="#5c128d"/><path d="m134 222h32v24h-32z" fill="#816982"/><path d="m166 254h-32c-4.418 0-8-3.582-8-8v-24c0-4.418 3.582-8 8-8h32c4.418 0 8 3.582 8 8v24c0 4.418-3.582 8-8 8zm-24-16h16v-8h-16z" fill="#5c128d"/><path d="m142 78h16v32h-16z" fill="#5c128d"/><path d="m134 70h32v16h-32z" fill="#5c128d"/><g fill="#f6d831"><path d="m150 62c-4.418 0-8-3.582-8-8v-24c0-4.418 3.582-8 8-8s8 3.582 8 8v24c0 4.418-3.582 8-8 8z"/><path d="m222 86c-2.048 0-4.095-.781-5.657-2.343-3.124-3.124-3.124-8.189 0-11.313l16-16c3.125-3.124 8.189-3.124 11.314 0 3.124 3.124 3.124 8.189 0 11.313l-16 16c-1.562 1.562-3.609 2.343-5.657 2.343z"/><path d="m245.999 110.002c-3.35 0-6.471-2.12-7.589-5.472-1.396-4.192.868-8.723 5.06-10.12l24-8c4.197-1.398 8.722.868 10.12 5.06 1.396 4.191-.868 8.722-5.06 10.12l-24 8c-.84.279-1.693.412-2.531.412z"/><path d="m190.001 70.002c-.839 0-1.691-.133-2.531-.413-4.191-1.397-6.456-5.928-5.06-10.119l8-24c1.398-4.191 5.93-6.455 10.12-5.06 4.191 1.397 6.456 5.928 5.06 10.119l-8 24c-1.118 3.353-4.239 5.473-7.589 5.473z"/><path d="m78 86c-2.048 0-4.095-.781-5.657-2.343l-16-16c-3.124-3.124-3.124-8.189 0-11.313 3.125-3.124 8.189-3.124 11.314 0l16 16c3.124 3.124 3.124 8.189 0 11.313-1.562 1.562-3.609 2.343-5.657 2.343z"/><path d="m54.001 110.002c-.839 0-1.691-.133-2.531-.412l-24-8c-4.191-1.397-6.456-5.928-5.06-10.12 1.399-4.191 5.927-6.457 10.12-5.06l24 8c4.191 1.397 6.456 5.927 5.06 10.12-1.118 3.352-4.239 5.472-7.589 5.472z"/><path d="m109.999 70.002c-3.35 0-6.471-2.12-7.589-5.472l-8-24c-1.396-4.191.868-8.722 5.06-10.119 4.194-1.4 8.722.868 10.12 5.06l8 24c1.396 4.191-.868 8.722-5.06 10.119-.84.279-1.693.412-2.531.412z"/></g><path d="m91.223 164.398c-1.601 0-3.216-.479-4.621-1.476-3.604-2.556-4.453-7.549-1.897-11.153 7.846-11.062 18.434-20.013 30.619-25.882 3.98-1.918 8.762-.245 10.679 3.735 1.918 3.98.245 8.762-3.735 10.679-9.753 4.698-18.229 11.863-24.512 20.724-1.561 2.2-4.028 3.373-6.533 3.373z" fill="#fff"/></svg>