<svg height="512" viewBox="0 0 300 300" width="512" xmlns="http://www.w3.org/2000/svg"><path d="M30 98h240v128H30z" fill="#d6d6d6"/><path d="M230 218c-22.091 0-40-17.908-40-40 0 22.092-17.909 40-40 40s-40-17.908-40-40c0 22.092-17.909 40-40 40s-40-17.908-40-40v88h240v-88c0 22.092-17.909 40-40 40z" fill="#26deeb"/><g fill="#5c128d"><path d="M70 226c-26.467 0-48-21.532-48-48a8 8 0 0116 0c0 17.645 14.355 32 32 32s32-14.355 32-32a8 8 0 0116 0c0 26.468-21.532 48-48 48z"/><path d="M150 226c-26.468 0-48-21.532-48-48a8 8 0 0116 0c0 17.645 14.355 32 32 32s32-14.355 32-32a8 8 0 0116 0c0 26.468-21.532 48-48 48z"/><path d="M230 226c-26.468 0-48-21.532-48-48a8 8 0 0116 0c0 17.645 14.355 32 32 32s32-14.355 32-32a8 8 0 0116 0c0 26.468-21.532 48-48 48zM134 218a8 8 0 01-8-8V66c0-8.822-7.178-16-16-16s-16 7.178-16 16v24a8 8 0 01-16 0V66c0-17.645 14.355-32 32-32s32 14.355 32 32v144a8 8 0 01-8 8z"/><path d="M254 218a8 8 0 01-8-8V66c0-8.822-7.178-16-16-16s-16 7.178-16 16v32a8 8 0 01-16 0V66c0-17.645 14.355-32 32-32s32 14.355 32 32v144a8 8 0 01-8 8z"/><path d="M254 162H134a8 8 0 010-16h120a8 8 0 010 16zM270 106H30a8 8 0 010-16h240a8 8 0 010 16z"/></g></svg>