<svg id="pool" enable-background="new 0 0 300 300" height="512" viewBox="0 0 300 300" width="512" xmlns="http://www.w3.org/2000/svg"><path d="m30 98h240v128h-240z" fill="#d6d6d6"/><path d="m230 218c-22.091 0-40-17.908-40-40 0 22.092-17.909 40-40 40s-40-17.908-40-40c0 22.092-17.909 40-40 40s-40-17.908-40-40v88h240v-88c0 22.092-17.909 40-40 40z" fill="#26deeb"/><g fill="#5c128d"><path d="m70 226c-26.467 0-48-21.532-48-48 0-4.418 3.582-8 8-8s8 3.582 8 8c0 17.645 14.355 32 32 32s32-14.355 32-32c0-4.418 3.582-8 8-8s8 3.582 8 8c0 26.468-21.532 48-48 48z"/><path d="m150 226c-26.468 0-48-21.532-48-48 0-4.418 3.582-8 8-8s8 3.582 8 8c0 17.645 14.355 32 32 32s32-14.355 32-32c0-4.418 3.582-8 8-8s8 3.582 8 8c0 26.468-21.532 48-48 48z"/><path d="m230 226c-26.468 0-48-21.532-48-48 0-4.418 3.582-8 8-8s8 3.582 8 8c0 17.645 14.355 32 32 32s32-14.355 32-32c0-4.418 3.582-8 8-8s8 3.582 8 8c0 26.468-21.532 48-48 48z"/><path d="m134 218c-4.418 0-8-3.582-8-8v-144c0-8.822-7.178-16-16-16s-16 7.178-16 16v24c0 4.418-3.582 8-8 8s-8-3.582-8-8v-24c0-17.645 14.355-32 32-32s32 14.355 32 32v144c0 4.418-3.582 8-8 8z"/><path d="m254 218c-4.418 0-8-3.582-8-8v-144c0-8.822-7.178-16-16-16s-16 7.178-16 16v32c0 4.418-3.582 8-8 8s-8-3.582-8-8v-32c0-17.645 14.355-32 32-32s32 14.355 32 32v144c0 4.418-3.582 8-8 8z"/><path d="m254 162h-120c-4.418 0-8-3.582-8-8s3.582-8 8-8h120c4.418 0 8 3.582 8 8s-3.582 8-8 8z"/><path d="m270 106h-240c-4.418 0-8-3.582-8-8s3.582-8 8-8h240c4.418 0 8 3.582 8 8s-3.582 8-8 8z"/></g></svg>