<svg id="tv" enable-background="new 0 0 300 300" height="512" viewBox="0 0 300 300" width="512" xmlns="http://www.w3.org/2000/svg"><path d="m185.571 74h84.429v152h-240v-152h111.083" fill="#26deeb"/><path d="m270 234h-240c-4.418 0-8-3.582-8-8v-152c0-4.418 3.582-8 8-8h111.083c4.418 0 8 3.582 8 8s-3.582 8-8 8h-103.083v136h224v-136h-76.43c-4.418 0-8-3.582-8-8s3.582-8 8-8h84.43c4.418 0 8 3.582 8 8v152c0 4.418-3.582 8-8 8z" fill="#5c128d"/><path d="m174 34h64v136h-64z" fill="#816982"/><g fill="#5c128d"><path d="m238 178h-64c-4.418 0-8-3.582-8-8v-136c0-4.418 3.582-8 8-8h64c4.418 0 8 3.582 8 8v136c0 4.418-3.582 8-8 8zm-56-16h48v-120h-48z"/><path d="m214 66h-16c-4.418 0-8-3.582-8-8s3.582-8 8-8h16c4.418 0 8 3.582 8 8s-3.582 8-8 8z"/><path d="m238 106h-64c-4.418 0-8-3.582-8-8s3.582-8 8-8h64c4.418 0 8 3.582 8 8s-3.582 8-8 8z"/><path d="m238 130h-56c-4.418 0-8-3.582-8-8s3.582-8 8-8h56c4.418 0 8 3.582 8 8s-3.582 8-8 8z"/><path d="m238 154h-56c-4.418 0-8-3.582-8-8s3.582-8 8-8h56c4.418 0 8 3.582 8 8s-3.582 8-8 8z"/><path d="m206 178c-4.418 0-8-3.582-8-8v-72c0-4.418 3.582-8 8-8s8 3.582 8 8v72c0 4.418-3.582 8-8 8z"/></g><path d="m54 122c-2.048 0-4.095-.781-5.657-2.343-3.124-3.125-3.124-8.189 0-11.314l16-16c3.125-3.124 8.189-3.124 11.314 0 3.124 3.124 3.124 8.189 0 11.314l-16 16c-1.562 1.562-3.609 2.343-5.657 2.343z" fill="#fff"/><path d="m54 154c-2.048 0-4.095-.781-5.657-2.343-3.124-3.125-3.124-8.189 0-11.314l48-48c3.125-3.124 8.189-3.124 11.314 0 3.124 3.124 3.124 8.189 0 11.314l-48 48c-1.562 1.562-3.609 2.343-5.657 2.343z" fill="#fff"/><path d="m134 226h32v40h-32z" fill="#816982"/><path d="m166 274h-32c-4.418 0-8-3.582-8-8v-40c0-4.418 3.582-8 8-8h32c4.418 0 8 3.582 8 8v40c0 4.418-3.582 8-8 8zm-24-16h16v-24h-16z" fill="#5c128d"/><path d="m190 274h-80c-4.418 0-8-3.582-8-8s3.582-8 8-8h80c4.418 0 8 3.582 8 8s-3.582 8-8 8z" fill="#5c128d"/></svg>