<svg height="512" viewBox="0 0 300 300" width="512" xmlns="http://www.w3.org/2000/svg"><path d="M185.571 74H270v152H30V74h111.083" fill="#26deeb"/><path d="M270 234H30a8 8 0 01-8-8V74a8 8 0 018-8h111.083a8 8 0 010 16H38v136h224V82h-76.43a8 8 0 010-16H270a8 8 0 018 8v152a8 8 0 01-8 8z" fill="#5c128d"/><path d="M174 34h64v136h-64z" fill="#816982"/><g fill="#5c128d"><path d="M238 178h-64a8 8 0 01-8-8V34a8 8 0 018-8h64a8 8 0 018 8v136a8 8 0 01-8 8zm-56-16h48V42h-48z"/><path d="M214 66h-16a8 8 0 010-16h16a8 8 0 010 16zM238 106h-64a8 8 0 010-16h64a8 8 0 010 16zM238 130h-56a8 8 0 010-16h56a8 8 0 010 16zM238 154h-56a8 8 0 010-16h56a8 8 0 010 16z"/><path d="M206 178a8 8 0 01-8-8V98a8 8 0 0116 0v72a8 8 0 01-8 8z"/></g><path d="M54 122a8 8 0 01-5.657-13.657l16-16a8 8 0 0111.314 11.314l-16 16A7.974 7.974 0 0154 122zM54 154a8 8 0 01-5.657-13.657l48-48a8 8 0 0111.314 11.314l-48 48A7.974 7.974 0 0154 154z" fill="#fff"/><path d="M134 226h32v40h-32z" fill="#816982"/><path d="M166 274h-32a8 8 0 01-8-8v-40a8 8 0 018-8h32a8 8 0 018 8v40a8 8 0 01-8 8zm-24-16h16v-24h-16z" fill="#5c128d"/><path d="M190 274h-80a8 8 0 010-16h80a8 8 0 010 16z" fill="#5c128d"/></svg>