<svg height="512" viewBox="0 0 300 300" width="512" xmlns="http://www.w3.org/2000/svg"><path d="M254.624 262H45.376C36.884 262 30 255.116 30 246.624v-25.247C30 212.884 36.884 206 45.376 206h209.247c8.492 0 15.376 6.884 15.376 15.376v25.247C270 255.116 263.116 262 254.624 262z" fill="#d6d6d6"/><path d="M254.624 270H45.376C32.486 270 22 259.514 22 246.624v-25.248C22 208.486 32.486 198 45.376 198h209.248c12.89 0 23.376 10.486 23.376 23.376v25.248c0 12.89-10.486 23.376-23.376 23.376zM45.376 214c-4.067 0-7.376 3.309-7.376 7.376v25.248c0 4.067 3.309 7.376 7.376 7.376h209.248c4.067 0 7.376-3.309 7.376-7.376v-25.248c0-4.067-3.309-7.376-7.376-7.376z" fill="#5c128d"/><path d="M206 86h16v96h-16z" fill="#d6d6d6"/><path d="M222 190h-16a8 8 0 01-8-8V86a8 8 0 018-8h16a8 8 0 018 8v96a8 8 0 01-8 8z" fill="#5c128d"/><path d="M214 86a8 8 0 01-8-8V38a8 8 0 0116 0v40a8 8 0 01-8 8z" fill="#5c128d"/><path d="M190 182h48v24h-48z" fill="#d6d6d6"/><g fill="#5c128d"><path d="M238 214h-48a8 8 0 01-8-8v-24a8 8 0 018-8h48a8 8 0 018 8v24a8 8 0 01-8 8zm-40-16h32v-8h-32z"/><circle cx="158" cy="174" r="8"/><path d="M118 182a8 8 0 01-8-8c0-26.468 21.532-48 48-48a8 8 0 010 16c-17.645 0-32 14.355-32 32a8 8 0 01-8 8z"/><path d="M78 182a8 8 0 01-8-8c0-48.523 39.477-88 88-88a8 8 0 010 16c-39.701 0-72 32.299-72 72a8 8 0 01-8 8z"/><path d="M38 182a8 8 0 01-8-8c0-70.579 57.421-128 128-128a8 8 0 010 16C96.243 62 46 112.243 46 174a8 8 0 01-8 8z"/></g><circle cx="238" cy="234" fill="#2ee52b" r="12"/><circle cx="162" cy="234" fill="#8690c3" r="12"/><circle cx="202" cy="234" fill="#e86436" r="12"/></svg>