<svg id="wifi" enable-background="new 0 0 300 300" height="512" viewBox="0 0 300 300" width="512" xmlns="http://www.w3.org/2000/svg"><path d="m254.624 262h-209.248c-8.492 0-15.376-6.884-15.376-15.376v-25.247c0-8.493 6.884-15.377 15.376-15.377h209.247c8.492 0 15.376 6.884 15.376 15.376v25.247c.001 8.493-6.883 15.377-15.375 15.377z" fill="#d6d6d6"/><path d="m254.624 270h-209.248c-12.89 0-23.376-10.486-23.376-23.376v-25.248c0-12.89 10.486-23.376 23.376-23.376h209.248c12.89 0 23.376 10.486 23.376 23.376v25.248c0 12.89-10.486 23.376-23.376 23.376zm-209.248-56c-4.067 0-7.376 3.309-7.376 7.376v25.248c0 4.067 3.309 7.376 7.376 7.376h209.248c4.067 0 7.376-3.309 7.376-7.376v-25.248c0-4.067-3.309-7.376-7.376-7.376z" fill="#5c128d"/><path d="m206 86h16v96h-16z" fill="#d6d6d6"/><path d="m222 190h-16c-4.418 0-8-3.582-8-8v-96c0-4.418 3.582-8 8-8h16c4.418 0 8 3.582 8 8v96c0 4.418-3.582 8-8 8z" fill="#5c128d"/><path d="m214 86c-4.418 0-8-3.582-8-8v-40c0-4.418 3.582-8 8-8s8 3.582 8 8v40c0 4.418-3.582 8-8 8z" fill="#5c128d"/><path d="m190 182h48v24h-48z" fill="#d6d6d6"/><g fill="#5c128d"><path d="m238 214h-48c-4.418 0-8-3.582-8-8v-24c0-4.418 3.582-8 8-8h48c4.418 0 8 3.582 8 8v24c0 4.418-3.582 8-8 8zm-40-16h32v-8h-32z"/><circle cx="158" cy="174" r="8"/><path d="m118 182c-4.418 0-8-3.582-8-8 0-26.468 21.532-48 48-48 4.418 0 8 3.582 8 8s-3.582 8-8 8c-17.645 0-32 14.355-32 32 0 4.418-3.582 8-8 8z"/><path d="m78 182c-4.418 0-8-3.582-8-8 0-48.523 39.477-88 88-88 4.418 0 8 3.582 8 8s-3.582 8-8 8c-39.701 0-72 32.299-72 72 0 4.418-3.582 8-8 8z"/><path d="m38 182c-4.418 0-8-3.582-8-8 0-70.579 57.421-128 128-128 4.418 0 8 3.582 8 8s-3.582 8-8 8c-61.757 0-112 50.243-112 112 0 4.418-3.582 8-8 8z"/></g><circle cx="238" cy="234" fill="#2ee52b" r="12"/><circle cx="162" cy="234" fill="#8690c3" r="12"/><circle cx="202" cy="234" fill="#e86436" r="12"/></svg>