<svg height="478pt" viewBox="0 -21 478 478" width="478pt" xmlns="http://www.w3.org/2000/svg"><path d="M149 9h30v68.234h-30zm0 0M349 407.234H119v-330H89v350h300v-20zm0 0M454 349.117c-8.82 0-16.992-4.648-21.496-12.23s-4.68-16.98-.461-24.727a25 25 0 007.824 46.606 25 25 0 0026.09-12.692A24.835 24.835 0 01454 349.117zm0 0M44 349.117c-8.82 0-16.992-4.648-21.496-12.23s-4.68-16.98-.461-24.727a25 25 0 007.824 46.606 25 25 0 0026.09-12.692A24.835 24.835 0 0144 349.117zm0 0" fill="#d4e1f4"/><g fill="#1ae5be"><path d="M444 436.117c-4.969 0-9-4.031-9-9v-66c0-4.972 4.031-9 9-9s9 4.028 9 9v66c0 4.969-4.031 9-9 9zm0 0M34 436.117c-4.969 0-9-4.031-9-9v-66c0-4.972 4.031-9 9-9s9 4.028 9 9v66c0 4.969-4.031 9-9 9zm0 0M333 146.234H145a9 9 0 110-18h188a9 9 0 110 18zm0 0M333 206.234H145a9 9 0 110-18h188a9 9 0 110 18zm0 0M333 256.234H145a9 9 0 110-18h188a9 9 0 110 18zm0 0"/></g><path d="M469 418.234h-71v-341a9 9 0 00-9-9h-51V9c0-4.969-4.031-9-9-9H149c-4.969 0-9 4.031-9 9v59.234H89a9 9 0 00-9 9v341H9a9 9 0 100 18h460a9 9 0 100-18zM158 18h162v50.234H158zM98 86.234h282v332h-52v-24.8c0-4.97-4.031-9-9-9h-16v-85.668a9 9 0 00-9-9H184a9 9 0 00-9 9v85.668h-16a9 9 0 00-9 9v24.8H98zm187 298.2h-37v-76.668h37zm-55 0h-37v-76.668h37zm80 18v15.8H168v-15.8zm0 0" fill="#0635c9"/><path d="M444 300.117c-18.777 0-34 15.223-34 34 0 18.778 15.223 34 34 34s34-15.222 34-34c-.02-18.77-15.23-33.98-34-34zm0 50c-8.836 0-16-7.164-16-16s7.164-16 16-16 16 7.164 16 16c-.012 8.832-7.168 15.988-16 16zm0 0M34 368.117c18.777 0 34-15.222 34-34 0-18.777-15.223-34-34-34s-34 15.223-34 34c.02 18.77 15.23 33.98 34 34zm0-50c8.836 0 16 7.164 16 16s-7.164 16-16 16-16-7.164-16-16c.012-8.832 7.168-15.988 16-16zm0 0" fill="#0635c9"/></svg>