<svg height="478pt" viewBox="0 -21 478 478" width="478pt" xmlns="http://www.w3.org/2000/svg"><path d="m149 9h30v68.234375h-30zm0 0" fill="#d4e1f4"/><path d="m349 407.234375h-230v-330h-30v350h300v-20zm0 0" fill="#d4e1f4"/><path d="m454 349.117188c-8.820312 0-16.992188-4.648438-21.496094-12.230469s-4.679687-16.980469-.460937-24.726563c-9.359375 5.101563-14.457031 15.578125-12.691407 26.089844 1.765626 10.511719 10.003907 18.75 20.515626 20.515625 10.511718 1.765625 20.988281-3.332031 26.089843-12.691406-3.667969 2.003906-7.777343 3.050781-11.957031 3.042969zm0 0" fill="#d4e1f4"/><path d="m44 349.117188c-8.820312 0-16.992188-4.648438-21.496094-12.230469s-4.679687-16.980469-.460937-24.726563c-9.359375 5.101563-14.457031 15.578125-12.691407 26.089844 1.765626 10.511719 10.003907 18.75 20.515626 20.515625 10.511718 1.765625 20.988281-3.332031 26.089843-12.691406-3.667969 2.003906-7.777343 3.050781-11.957031 3.042969zm0 0" fill="#d4e1f4"/><g fill="#1ae5be"><path d="m444 436.117188c-4.96875 0-9-4.03125-9-9v-66c0-4.972657 4.03125-9 9-9s9 4.027343 9 9v66c0 4.96875-4.03125 9-9 9zm0 0"/><path d="m34 436.117188c-4.96875 0-9-4.03125-9-9v-66c0-4.972657 4.03125-9 9-9s9 4.027343 9 9v66c0 4.96875-4.03125 9-9 9zm0 0"/><path d="m333 146.234375h-188c-4.96875 0-9-4.03125-9-9 0-4.972656 4.03125-9 9-9h188c4.96875 0 9 4.027344 9 9 0 4.96875-4.03125 9-9 9zm0 0"/><path d="m333 206.234375h-188c-4.96875 0-9-4.03125-9-9 0-4.972656 4.03125-9 9-9h188c4.96875 0 9 4.027344 9 9 0 4.96875-4.03125 9-9 9zm0 0"/><path d="m333 256.234375h-188c-4.96875 0-9-4.03125-9-9 0-4.972656 4.03125-9 9-9h188c4.96875 0 9 4.027344 9 9 0 4.96875-4.03125 9-9 9zm0 0"/></g><path d="m469 418.234375h-71v-341c0-4.972656-4.03125-9-9-9h-51v-59.234375c0-4.96875-4.03125-9-9-9h-180c-4.96875 0-9 4.03125-9 9v59.234375h-51c-4.96875 0-9 4.027344-9 9v341h-71c-4.96875 0-9 4.027344-9 9 0 4.96875 4.03125 9 9 9h460c4.96875 0 9-4.03125 9-9 0-4.972656-4.03125-9-9-9zm-311-400.234375h162v50.234375h-162zm-60 68.234375h282v332h-52v-24.800781c0-4.96875-4.03125-9-9-9h-16v-85.667969c0-4.972656-4.03125-9-9-9h-110c-4.96875 0-9 4.027344-9 9v85.667969h-16c-4.96875 0-9 4.027344-9 9v24.800781h-52zm187 298.199219h-37v-76.667969h37zm-55 0h-37v-76.667969h37zm80 18v15.800781h-142v-15.800781zm0 0" fill="#0635c9"/><path d="m444 300.117188c-18.777344 0-34 15.222656-34 34 0 18.777343 15.222656 34 34 34s34-15.222657 34-34c-.019531-18.769532-15.230469-33.980469-34-34zm0 50c-8.835938 0-16-7.164063-16-16 0-8.835938 7.164062-16 16-16s16 7.164062 16 16c-.011719 8.832031-7.167969 15.988281-16 16zm0 0" fill="#0635c9"/><path d="m34 368.117188c18.777344 0 34-15.222657 34-34 0-18.777344-15.222656-34-34-34s-34 15.222656-34 34c.0195312 18.769531 15.230469 33.980468 34 34zm0-50c8.835938 0 16 7.164062 16 16 0 8.835937-7.164062 16-16 16s-16-7.164063-16-16c.011719-8.832032 7.167969-15.988282 16-16zm0 0" fill="#0635c9"/></svg>